<mxfile host="app.diagrams.net" modified="2021-02-12T13:33:25.873Z" agent="5.0 (Windows NT 10.0; Win64; x64) AppleWebKit/537.36 (KHTML, like Gecko) Chrome/88.0.4324.150 Safari/537.36" etag="v5ZD1vELxG2x0_mHzamO" version="14.3.0" type="github">
  <diagram id="xgx91Qhlt98eilZJFXm7" name="Page-1">
    <mxGraphModel dx="925" dy="537" grid="1" gridSize="10" guides="1" tooltips="1" connect="1" arrows="1" fold="1" page="1" pageScale="1" pageWidth="850" pageHeight="1100" math="0" shadow="0">
      <root>
        <mxCell id="0" />
        <mxCell id="1" parent="0" />
        <mxCell id="a4UhODL5tu5-3ZXzQEtq-6" value="Auto Push" style="edgeStyle=orthogonalEdgeStyle;rounded=0;orthogonalLoop=1;jettySize=auto;html=1;shadow=0;" parent="1" source="a4UhODL5tu5-3ZXzQEtq-1" target="a4UhODL5tu5-3ZXzQEtq-3" edge="1">
          <mxGeometry relative="1" as="geometry" />
        </mxCell>
        <mxCell id="a4UhODL5tu5-3ZXzQEtq-1" value="Master Branch" style="strokeWidth=2;html=1;shape=mxgraph.flowchart.multi-document;whiteSpace=wrap;fillColor=#f5f5f5;strokeColor=#666666;fontColor=#333333;" parent="1" vertex="1">
          <mxGeometry x="150" y="250" width="120" height="80" as="geometry" />
        </mxCell>
        <mxCell id="a4UhODL5tu5-3ZXzQEtq-7" value="Auto Push" style="edgeStyle=orthogonalEdgeStyle;rounded=0;orthogonalLoop=1;jettySize=auto;html=1;" parent="1" source="a4UhODL5tu5-3ZXzQEtq-2" target="a4UhODL5tu5-3ZXzQEtq-5" edge="1">
          <mxGeometry relative="1" as="geometry" />
        </mxCell>
        <mxCell id="a4UhODL5tu5-3ZXzQEtq-27" value="Weekly Deplyment" style="edgeStyle=orthogonalEdgeStyle;rounded=0;orthogonalLoop=1;jettySize=auto;html=1;entryX=1;entryY=0.5;entryDx=0;entryDy=0;entryPerimeter=0;shadow=0;" parent="1" source="a4UhODL5tu5-3ZXzQEtq-2" target="a4UhODL5tu5-3ZXzQEtq-1" edge="1">
          <mxGeometry relative="1" as="geometry" />
        </mxCell>
        <mxCell id="a4UhODL5tu5-3ZXzQEtq-2" value="PreProd Branch" style="strokeWidth=2;html=1;shape=mxgraph.flowchart.multi-document;whiteSpace=wrap;fillColor=#f5f5f5;strokeColor=#666666;fontColor=#333333;" parent="1" vertex="1">
          <mxGeometry x="480" y="250" width="120" height="80" as="geometry" />
        </mxCell>
        <mxCell id="a4UhODL5tu5-3ZXzQEtq-20" value="Jenkin Deployment" style="edgeStyle=orthogonalEdgeStyle;rounded=0;orthogonalLoop=1;jettySize=auto;html=1;entryX=0.5;entryY=0;entryDx=0;entryDy=0;shadow=0;" parent="1" source="a4UhODL5tu5-3ZXzQEtq-3" target="a4UhODL5tu5-3ZXzQEtq-13" edge="1">
          <mxGeometry relative="1" as="geometry" />
        </mxCell>
        <mxCell id="a4UhODL5tu5-3ZXzQEtq-3" value="PreProd Server&lt;br&gt;glprepod.in" style="rounded=0;whiteSpace=wrap;html=1;" parent="1" vertex="1">
          <mxGeometry x="150" y="400" width="120" height="60" as="geometry" />
        </mxCell>
        <mxCell id="a4UhODL5tu5-3ZXzQEtq-5" value="PreProd V2 Server&lt;br&gt;glprepod2.in" style="rounded=0;whiteSpace=wrap;html=1;" parent="1" vertex="1">
          <mxGeometry x="480" y="400" width="120" height="60" as="geometry" />
        </mxCell>
        <mxCell id="a4UhODL5tu5-3ZXzQEtq-23" style="edgeStyle=orthogonalEdgeStyle;rounded=0;orthogonalLoop=1;jettySize=auto;html=1;shadow=0;" parent="1" source="a4UhODL5tu5-3ZXzQEtq-8" target="a4UhODL5tu5-3ZXzQEtq-2" edge="1">
          <mxGeometry relative="1" as="geometry">
            <Array as="points">
              <mxPoint x="135" y="160" />
              <mxPoint x="540" y="160" />
            </Array>
          </mxGeometry>
        </mxCell>
        <mxCell id="a4UhODL5tu5-3ZXzQEtq-8" value="GL-1" style="ellipse;whiteSpace=wrap;html=1;fillColor=#fff2cc;strokeColor=#d6b656;" parent="1" vertex="1">
          <mxGeometry x="100" y="90" width="70" height="40" as="geometry" />
        </mxCell>
        <mxCell id="a4UhODL5tu5-3ZXzQEtq-24" style="edgeStyle=orthogonalEdgeStyle;rounded=0;orthogonalLoop=1;jettySize=auto;html=1;shadow=0;" parent="1" source="a4UhODL5tu5-3ZXzQEtq-9" target="a4UhODL5tu5-3ZXzQEtq-2" edge="1">
          <mxGeometry relative="1" as="geometry">
            <Array as="points">
              <mxPoint x="225" y="160" />
              <mxPoint x="540" y="160" />
            </Array>
          </mxGeometry>
        </mxCell>
        <mxCell id="a4UhODL5tu5-3ZXzQEtq-9" value="GL-2" style="ellipse;whiteSpace=wrap;html=1;fillColor=#fff2cc;strokeColor=#d6b656;" parent="1" vertex="1">
          <mxGeometry x="190" y="90" width="70" height="40" as="geometry" />
        </mxCell>
        <mxCell id="a4UhODL5tu5-3ZXzQEtq-19" value="Immediate Fix" style="edgeStyle=orthogonalEdgeStyle;rounded=0;orthogonalLoop=1;jettySize=auto;html=1;entryX=0.5;entryY=0;entryDx=0;entryDy=0;entryPerimeter=0;shadow=0;fillColor=#f8cecc;strokeColor=#b85450;" parent="1" source="a4UhODL5tu5-3ZXzQEtq-10" target="a4UhODL5tu5-3ZXzQEtq-1" edge="1">
          <mxGeometry relative="1" as="geometry">
            <Array as="points">
              <mxPoint x="315" y="190" />
              <mxPoint x="210" y="190" />
            </Array>
          </mxGeometry>
        </mxCell>
        <mxCell id="a4UhODL5tu5-3ZXzQEtq-10" value="GL-3" style="ellipse;whiteSpace=wrap;html=1;fillColor=#f8cecc;strokeColor=#b85450;" parent="1" vertex="1">
          <mxGeometry x="280" y="90" width="70" height="40" as="geometry" />
        </mxCell>
        <mxCell id="a4UhODL5tu5-3ZXzQEtq-25" value="Weekly Deployment" style="edgeStyle=orthogonalEdgeStyle;rounded=0;orthogonalLoop=1;jettySize=auto;html=1;shadow=0;" parent="1" source="a4UhODL5tu5-3ZXzQEtq-12" target="a4UhODL5tu5-3ZXzQEtq-2" edge="1">
          <mxGeometry relative="1" as="geometry">
            <Array as="points">
              <mxPoint x="425" y="160" />
              <mxPoint x="540" y="160" />
            </Array>
          </mxGeometry>
        </mxCell>
        <mxCell id="a4UhODL5tu5-3ZXzQEtq-12" value="GL-4" style="ellipse;whiteSpace=wrap;html=1;fillColor=#fff2cc;strokeColor=#d6b656;" parent="1" vertex="1">
          <mxGeometry x="390" y="90" width="70" height="40" as="geometry" />
        </mxCell>
        <mxCell id="a4UhODL5tu5-3ZXzQEtq-13" value="Production Server" style="rounded=0;whiteSpace=wrap;html=1;" parent="1" vertex="1">
          <mxGeometry x="150" y="550" width="120" height="60" as="geometry" />
        </mxCell>
        <mxCell id="zc8YA_tj23037TPwd3GZ-1" value="Take Local PrePord Branch Pull" style="rounded=0;whiteSpace=wrap;html=1;" parent="1" vertex="1">
          <mxGeometry x="680" y="160" width="120" height="40" as="geometry" />
        </mxCell>
        <mxCell id="zc8YA_tj23037TPwd3GZ-3" value="Merge Master into GL-1 Branch" style="rounded=0;whiteSpace=wrap;html=1;" parent="1" vertex="1">
          <mxGeometry x="680" y="240" width="120" height="40" as="geometry" />
        </mxCell>
        <mxCell id="zc8YA_tj23037TPwd3GZ-4" value="Merge GL-1 Branch into PreProd Branch" style="rounded=0;whiteSpace=wrap;html=1;comic=0;gradientColor=none;perimeterSpacing=0;glass=0;" parent="1" vertex="1">
          <mxGeometry x="680" y="320" width="120" height="80" as="geometry" />
        </mxCell>
      </root>
    </mxGraphModel>
  </diagram>
</mxfile>
